# xmcd CD database file
#
# Track frame offsets:
#	150
#	13892
#	28777
#	46242
#	65216
#	79968
#	102510
#	117648
#	136458
#	151335
#	172746
#	188199
#	205792
#	221191
#	239157
#	254930
#	270890
#	291073
#	308201
#	324148
#
# Disc length: 4613 seconds
#
# Revision: 0
# Processed by: cddbd v1.5.1PL0 Copyright (c) Steve Scherf et al.
# Submitted via: freeDB plugin v1.0
#
DISCID=33120314
DTITLE=ジョン・レノン - レノン・レジェンド〜ザ・ヴェリー・ベスト・オブ・ジョン・レノン〜
DYEAR=1900
DGENRE=Rock
TTITLE0=イマジン
TTITLE1=インスタント・カーマ
TTITLE2=マザー（母）
TTITLE3=ジェラス・ガイ
TTITLE4=パワー・トゥ・ザ・ピープル
TTITLE5=コールド・ターキー（冷たい七面鳥）
TTITLE6=ラブ
TTITLE7=マインド・ゲームス
TTITLE8=真夜中を突っ走れ
TTITLE9=夢の夢
TTITLE10=スタンド・バイ・ミー
TTITLE11=スターティング・オーヴァー
TTITLE12=ウーマン
TTITLE13=ビューティフル・ボーイ
TTITLE14=ウォッチング・ザ・ホイールズ
TTITLE15=ノーバディ・トールド・ミー
TTITLE16=ボロード・タイム
TTITLE17=ワーキング・クラス・ヒーロー（労働階級の英雄）
TTITLE18=ハッピー・クリスマス（戦争は終った）
TTITLE19=平和を我等に
EXTD=
EXTT0=
EXTT1=
EXTT2=
EXTT3=
EXTT4=
EXTT5=
EXTT6=
EXTT7=
EXTT8=
EXTT9=
EXTT10=
EXTT11=
EXTT12=
EXTT13=
EXTT14=
EXTT15=
EXTT16=
EXTT17=
EXTT18=
EXTT19=
PLAYORDER=
